<svg width="32" height="32" version="1.1" xmlns="http://www.w3.org/2000/svg" desc="Created with imagetracer.js version 1.2.6" ><path fill="rgb(0,0,0)" stroke="rgb(0,0,0)" stroke-width="1" opacity="0" d="M 0 0 L 4 0.5 L 1 2.5 L 0.5 4 L 0 0 Z " /><path fill="rgb(0,0,0)" stroke="rgb(0,0,0)" stroke-width="1" opacity="0" d="M 28.5 0 Q 33.8 -1.8 32 3.5 L 31 3.5 L 29.5 1 L 28.5 0 Z " /><path fill="rgb(0,0,0)" stroke="rgb(0,0,0)" stroke-width="1" opacity="0" d="M 0.5 28 L 2.5 31 L 4 31.5 L 0 32 L 0.5 28 Z " /><path fill="rgb(0,0,0)" stroke="rgb(0,0,0)" stroke-width="1" opacity="0" d="M 31.5 28 L 32 32 L 28 31.5 L 31 29.5 L 31.5 28 Z " /><path fill="rgb(0,150,136)" stroke="rgb(0,150,136)" stroke-width="1" opacity="1" d="M 4.5 0 L 27.5 0 L 31 2.5 L 32 4.5 L 32 27.5 L 29.5 31 L 27.5 32 L 4.5 32 L 1 29.5 L 0 27.5 L 0 4.5 L 2.5 1 L 4.5 0 Z M 9 7 L 9 26 L 14 26 L 14 8 L 9 7 Z M 17 7 L 17 26 L 22 26 L 22 8 L 17 7 Z " /><path fill="rgb(255,255,255)" stroke="rgb(255,255,255)" stroke-width="1" opacity="1" d="M 9 7 L 14 7.5 L 14 26 L 9 25.5 L 9 7 Z " /><path fill="rgb(255,255,255)" stroke="rgb(255,255,255)" stroke-width="1" opacity="1" d="M 17 7 L 22 7.5 L 22 26 L 17 25.5 L 17 7 Z " /></svg>