<svg width="32" height="32" version="1.1" xmlns="http://www.w3.org/2000/svg" desc="Created with imagetracer.js version 1.2.6" ><path fill="rgb(0,0,0)" stroke="rgb(0,0,0)" stroke-width="1" opacity="0" d="M 0 0 L 4 0.5 L 1 2.5 L 0.5 4 L 0 0 Z " /><path fill="rgb(0,0,0)" stroke="rgb(0,0,0)" stroke-width="1" opacity="0" d="M 28.5 0 Q 33.8 -1.8 32 3.5 L 31 3.5 L 29.5 1 L 28.5 0 Z " /><path fill="rgb(0,0,0)" stroke="rgb(0,0,0)" stroke-width="1" opacity="0" d="M 0.5 28 L 2.5 31 L 4 31.5 L 0 32 L 0.5 28 Z " /><path fill="rgb(0,0,0)" stroke="rgb(0,0,0)" stroke-width="1" opacity="0" d="M 31.5 28 L 32 32 L 28 31.5 L 31 29.5 L 31.5 28 Z " /><path fill="rgb(0,150,136)" stroke="rgb(0,150,136)" stroke-width="1" opacity="1" d="M 4.5 0 L 27.5 0 L 31 2.5 L 32 4.5 L 32 27.5 L 29.5 31 L 27.5 32 L 4.5 32 L 1 29.5 L 0 27.5 L 0 4.5 L 2.5 1 L 4.5 0 Z M 10 8 L 11 25 L 22 16 L 10 8 Z " /><path fill="rgb(210,236,234)" stroke="rgb(210,236,234)" stroke-width="1" opacity="1" d="M 10.5 8 L 18 13.5 L 15.5 12 Q 10.9 10.8 10.5 8 Z " /><path fill="rgb(210,236,234)" stroke="rgb(210,236,234)" stroke-width="1" opacity="1" d="M 10.5 12 L 11 23.5 L 10 23.5 L 10.5 12 Z " /><path fill="rgb(210,236,234)" stroke="rgb(210,236,234)" stroke-width="1" opacity="1" d="M 19.5 14 L 21 16.5 L 16.5 20 L 18.5 17 Q 20.8 17.8 20 15.5 L 19.5 14 Z " /><path fill="rgb(210,236,234)" stroke="rgb(210,236,234)" stroke-width="1" opacity="1" d="M 14.5 20 L 12.5 23 L 14.5 20 Z " /><path fill="rgb(64,176,166)" stroke="rgb(64,176,166)" stroke-width="1" opacity="1" d="M 17.5 12 L 18.5 14 L 17.5 12 Z " /><path fill="rgb(64,176,166)" stroke="rgb(64,176,166)" stroke-width="1" opacity="1" d="M 20.5 14 L 21.5 16 L 20.5 14 Z " /><path fill="rgb(64,176,166)" stroke="rgb(64,176,166)" stroke-width="1" opacity="1" d="M 15.5 20 L 14.5 22 L 15.5 20 Z " /><path fill="rgb(64,176,166)" stroke="rgb(64,176,166)" stroke-width="1" opacity="1" d="M 11.5 23 L 10.5 25 L 11.5 23 Z " /><path fill="rgb(255,255,255)" stroke="rgb(255,255,255)" stroke-width="1" opacity="1" d="M 10.5 9 L 20 15.5 Q 20.8 17.8 18.5 17 L 11.5 23 L 10.5 9 Z " /></svg>